#N canvas 553 272 857 528 10;
#X obj 103 245 dac~ 1 2;
#X obj 160 244 print;
#X floatatom 219 142 5 0 0 0 - - -, f 5;
#X obj 219 120 hradio 15 0 0 4 empty empty empty 0 -8 0 10 -262144
-1 -1 0;
#X text 219 103 model select;
#X obj 328 148 f, f 2;
#X obj 328 121 bng 15 250 50 0 empty empty empty 17 7 0 10 -262144
-1 -1;
#X obj 356 174 +;
#X obj 387 175 mod;
#X msg 371 147 1;
#X msg 402 146 4;
#X obj 356 212 print count;
#X text 372 124 step;
#X text 405 124 limit;
#X text 327 103 increment;
#X obj 219 166 res-load, f 10;
#X obj 103 188 resonators~;
#X text 103 101 piezo input;
#X obj 103 123 adc~ 1;
#X text 110 152 TODO: scale?;
#X connect 2 0 15 0;
#X connect 3 0 2 0;
#X connect 5 0 7 0;
#X connect 5 0 11 0;
#X connect 6 0 5 0;
#X connect 7 0 5 1;
#X connect 7 0 8 0;
#X connect 8 0 5 1;
#X connect 9 0 7 1;
#X connect 10 0 8 1;
#X connect 15 0 1 0;
#X connect 15 0 16 0;
#X connect 16 0 0 0;
#X connect 16 0 0 1;
#X connect 18 0 16 0;
