#N canvas 957 0 657 437 10;
#X floatatom 250 154 5 0 0 0 - - -, f 5;
#X obj 250 132 hradio 15 0 0 4 empty empty empty 0 -8 0 10 -262144
-1 -1 0;
#X text 250 115 model select;
#X obj 251 267 res-load, f 10;
#X obj 51 313 resonators~;
#X obj 50 117 analogInput0~;
#X obj 50 171 setSensorThreshold~;
#X msg 161 142 0.5;
#X obj 161 117 loadbang;
#X text 315 285 and send them to resonators~;
#X text 315 268 loads default resonance models;
#X text 49 35 EXCITING A RESONANCE MODEL WITH A PIEZO;
#X text 50 99 piezo input;
#X obj 513 371 audioOnOff;
#X obj 513 347 tgl 15 0 empty empty empty 17 7 0 10 -262144 -1 -1 0
1;
#X obj 513 322 loadbang;
#X obj 51 370 output~;
#X obj 62 144 scope0~;
#X obj 103 370 scope1~;
#X obj 251 365 print model;
#X obj 264 203 print select;
#X connect 0 0 3 0;
#X connect 0 0 20 0;
#X connect 1 0 0 0;
#X connect 3 0 4 0;
#X connect 3 0 19 0;
#X connect 4 0 16 0;
#X connect 4 0 18 0;
#X connect 5 0 6 0;
#X connect 5 0 17 0;
#X connect 6 0 4 0;
#X connect 7 0 6 1;
#X connect 8 0 7 0;
#X connect 14 0 13 0;
#X connect 15 0 14 0;
