#N canvas 20 25 657 437 10;
#X floatatom 250 154 5 0 0 0 - - -, f 5;
#X obj 250 132 hradio 15 0 0 14 empty empty empty 0 -8 0 10 -262144
-1 -1 0;
#X text 250 115 model select;
#X obj 251 267 res-load, f 10;
#X obj 51 313 resonators~;
#X obj 50 117 analogInput0~;
#X text 315 285 and send them to resonators~;
#X text 315 268 loads default resonance models;
#X text 49 35 EXCITING A RESONANCE MODEL WITH A PIEZO;
#X text 50 99 piezo input;
#X obj 513 371 audioOnOff;
#X obj 513 347 tgl 15 0 empty empty empty 17 7 0 10 -262144 -1 -1 1
1;
#X obj 513 322 loadbang;
#X obj 51 370 output~;
#X obj 62 144 scope0~;
#X obj 251 365 print model;
#X obj 264 203 print select;
#X text 282 154 radio buttons will output integers;
#X text 90 254 scale up before;
#X text 90 271 sending to resonators~;
#X obj 50 201 -~ 1;
#X text 95 178 re-centre;
#X text 95 201 from 0-1 to -1 to 1;
#X obj 60 229 scope1~;
#X obj 50 179 *~ 2.5;
#X obj 50 254 *~ 200;
#X obj 103 370 scope2~;
#X connect 0 0 3 0;
#X connect 0 0 16 0;
#X connect 1 0 0 0;
#X connect 3 0 4 0;
#X connect 3 0 15 0;
#X connect 4 0 13 0;
#X connect 4 0 26 0;
#X connect 5 0 14 0;
#X connect 5 0 24 0;
#X connect 11 0 10 0;
#X connect 12 0 11 0;
#X connect 20 0 23 0;
#X connect 20 0 25 0;
#X connect 24 0 20 0;
#X connect 25 0 4 0;
