#N canvas 557 22 609 407 10;
#X obj 70 13 inlet;
#X obj 73 271 outlet;
#X obj 70 92 t b b;
#X msg 94 228 0;
#X msg 123 172 1;
#X obj 73 196 spigot 1;
#X msg 70 54 bang;
#X text 133 10 if we get a stream of bangs \, let one through;
#X text 131 22 then block the rest until we are clear for \$1;
#X text 131 32 milliseconds (default 50 ms);
#X obj 173 98 inlet;
#X text 136 76 converts every left input into a bang;
#X text 134 52 right input sets time in ms;
#X obj 123 146 delay \$1;
#X obj 226 99 loadbang;
#X msg 226 121 100;
#X connect 0 0 6 0;
#X connect 2 0 13 0;
#X connect 2 1 5 0;
#X connect 3 0 5 1;
#X connect 4 0 5 1;
#X connect 5 0 3 0;
#X connect 5 0 1 0;
#X connect 6 0 2 0;
#X connect 10 0 13 1;
#X connect 13 0 4 0;
#X connect 14 0 15 0;
#X connect 15 0 13 1;
