#N canvas 332 90 1297 807 10;
#X floatatom 274 103 5 0 0 0 - - -, f 5;
#X floatatom 329 172 5 0 0 0 - - -, f 5;
#X obj 372 792 dac~;
#X text 308 102 number of resonances (for amp sorting \, the collection
must be amplitude sorted from highest to lowest);
#X text 365 170 model number \, selected from list in the 3rd inlet
count starts with 1;
#X text 409 376 list of resonance model collections (max style text
file) they should all be in the search path;
#X msg 346 590 rate-scale \$1;
#X floatatom 359 561 5 0 0 0 - - -, f 5;
#X floatatom 471 560 5 0 0 0 - - -, f 5;
#X msg 458 589 frequency-scale \$1;
#X floatatom 603 561 5 0 0 0 - - -, f 5;
#X msg 590 590 gain-scale \$1;
#X obj 95 655 resonators~;
#X obj 363 684 print 1;
#X obj 308 701 print 2;
#X obj 275 62 bng 15 250 50 0 empty empty empty 17 7 0 10 -262144 -1
-1;
#X obj 57 366 metro 200;
#X obj 60 317 tgl 15 0 empty empty empty 17 7 0 10 -262144 -1 -1 1
1;
#X obj 401 452 hsl 128 15 0 127 0 0 empty empty empty -2 -8 0 10 -262144
-1 -1 11850 1;
#X obj 396 478 moses 64;
#X obj 368 510 ali.scale 0 64 0 1;
#X obj 486 511 ali.scale 64 127 1 5;
#X obj 103 415 random 2;
#X obj 81 455 spigot;
#X msg 90 483 0.8;
#X obj 149 449 + 1;
#X obj 149 488 * 100;
#X floatatom 195 447 5 0 0 0 - - -, f 5;
#X floatatom 704 559 5 0 0 0 - - -, f 5;
#X msg 691 588 frequency-add \$1;
#X obj 282 425 res-model-loader;
#X obj 285 645 res-transform;
#X msg 384 212 modelhanddrum.coll modelharmonic.coll modelmarimba.coll
modelmetallic.coll;
#X msg 45 487 0.2;
#X connect 0 0 30 0;
#X connect 1 0 30 1;
#X connect 6 0 31 0;
#X connect 7 0 6 0;
#X connect 8 0 9 0;
#X connect 9 0 31 0;
#X connect 10 0 11 0;
#X connect 11 0 31 0;
#X connect 12 0 2 0;
#X connect 12 0 2 1;
#X connect 15 0 0 0;
#X connect 16 0 22 0;
#X connect 16 0 23 0;
#X connect 16 0 33 0;
#X connect 17 0 16 0;
#X connect 18 0 19 0;
#X connect 19 0 20 0;
#X connect 19 1 21 0;
#X connect 20 0 7 0;
#X connect 21 0 7 0;
#X connect 22 0 23 1;
#X connect 22 0 25 0;
#X connect 23 0 24 0;
#X connect 25 0 26 0;
#X connect 26 0 16 1;
#X connect 27 0 26 1;
#X connect 28 0 29 0;
#X connect 29 0 31 0;
#X connect 30 0 13 0;
#X connect 30 0 31 0;
#X connect 31 0 12 0;
#X connect 31 0 14 0;
#X connect 32 0 30 2;
#X connect 33 0 12 0;
