#N canvas 787 328 866 607 10;
#X floatatom 95 343 5 0 0 0 - - -, f 5;
#X floatatom 93 93 5 0 0 0 - - -, f 5;
#X obj 95 365 res-model-loader;
#X msg 304 211 modelhanddrum.coll modelharmonic.coll modelmarimba.coll
modelmetallic.coll;
#X obj 95 324 bng 15 250 50 0 empty empty empty 17 7 0 10 -262144 -1
-1;
#X obj 95 399 outlet;
#X obj 185 88 inlet;
#X obj 93 53 inlet;
#X obj 415 270 loadbang;
#X obj 93 73 + 1;
#X msg 363 267 1;
#X msg 415 291 40;
#X text 185 71 number of resonances (default 40);
#X obj 263 120 inlet;
#X text 263 103 list of .coll model files (required to be in pd path)
;
#X text 93 36 select model from res-model-loader 3rd inlet (1-indexed)
(default 1), f 69;
#X text 95 416 output to [resonators~];
#X obj 363 247 loadbang;
#X obj 304 189 loadbang;
#X text 304 172 defaults (loadbang in reverse order);
#X connect 0 0 2 0;
#X connect 1 0 2 1;
#X connect 1 0 4 0;
#X connect 2 0 5 0;
#X connect 3 0 2 2;
#X connect 4 0 0 0;
#X connect 6 0 0 0;
#X connect 7 0 9 0;
#X connect 8 0 11 0;
#X connect 9 0 1 0;
#X connect 10 0 2 1;
#X connect 11 0 0 0;
#X connect 13 0 2 2;
#X connect 17 0 10 0;
#X connect 18 0 3 0;
