#N canvas 601 352 789 526 10;
#X floatatom 205 238 5 0 0 0 - - -, f 5;
#X floatatom 251 165 5 0 0 0 - - -, f 5;
#X obj 96 340 resonators~;
#X msg 95 297 0.5;
#X obj 92 433 dac~;
#X text 241 113 number of resonances (for amp sorting \, the collection
must be amplitude sorted from highest to lowest);
#X text 287 163 model number \, selected from list in the 3rd inlet
count starts with 1;
#X text 334 251 list of resonance model collections (max style text
file) they should all be in the search path;
#X obj 207 300 res-model-loader;
#X msg 300 207 modelhanddrum.coll modelharmonic.coll modelmarimba.coll
modelmetallic.coll;
#X obj 102 381 *~ 1;
#X obj 226 212 bng 15 250 50 0 empty empty empty 17 7 0 10 -262144
-1 -1;
#X connect 0 0 8 0;
#X connect 1 0 8 1;
#X connect 1 0 11 0;
#X connect 2 0 10 0;
#X connect 3 0 2 0;
#X connect 8 0 2 0;
#X connect 9 0 8 2;
#X connect 10 0 4 0;
#X connect 10 0 4 1;
#X connect 11 0 0 0;
