#N canvas 366 188 1078 624 10;
#X obj 95 367 dac~ 1 2;
#X obj 209 132 f, f 2;
#X obj 209 105 bng 15 250 50 0 empty empty empty 17 7 0 10 -262144
-1 -1;
#X obj 237 158 +;
#X obj 268 159 mod;
#X msg 252 131 1;
#X msg 283 130 4;
#X obj 237 196 print count;
#X text 253 108 step;
#X text 286 108 limit;
#X text 208 87 increment;
#X obj 208 239 res-load, f 10;
#X obj 95 310 resonators~;
#X text 95 98 piezo input;
#X obj 95 120 adc~ 1;
#X text 102 149 TODO: scale?;
#X msg 353 242 rate-scale \$1;
#X floatatom 353 218 5 0 0 0 - - -, f 5;
#X floatatom 450 220 5 0 0 0 - - -, f 5;
#X msg 450 242 frequency-scale \$1;
#X floatatom 576 219 5 0 0 0 - - -, f 5;
#X msg 576 241 gain-scale \$1;
#X obj 353 98 hsl 128 15 0 127 0 0 empty empty empty -2 -8 0 10 -262144
-1 -1 0 1;
#X obj 353 276 res-transform;
#X obj 353 118 / 127;
#X obj 353 140 * 5;
#X obj 450 122 hsl 128 15 0 127 0 0 empty empty empty -2 -8 0 10 -262144
-1 -1 0 1;
#X obj 450 142 / 127;
#X obj 450 164 * 5;
#X obj 576 151 hsl 128 15 0 127 0 0 empty empty empty -2 -8 0 10 -262144
-1 -1 0 1;
#X obj 576 171 / 127;
#X obj 576 193 * 5;
#X connect 1 0 3 0;
#X connect 1 0 7 0;
#X connect 1 0 11 0;
#X connect 2 0 1 0;
#X connect 3 0 1 1;
#X connect 3 0 4 0;
#X connect 4 0 1 1;
#X connect 5 0 3 1;
#X connect 6 0 4 1;
#X connect 11 0 23 0;
#X connect 12 0 0 0;
#X connect 12 0 0 1;
#X connect 14 0 12 0;
#X connect 16 0 23 0;
#X connect 17 0 16 0;
#X connect 18 0 19 0;
#X connect 19 0 23 0;
#X connect 20 0 21 0;
#X connect 21 0 23 0;
#X connect 22 0 24 0;
#X connect 23 0 12 0;
#X connect 24 0 25 0;
#X connect 25 0 17 0;
#X connect 26 0 27 0;
#X connect 27 0 28 0;
#X connect 28 0 18 0;
#X connect 29 0 30 0;
#X connect 30 0 31 0;
#X connect 31 0 20 0;
