#N canvas 399 492 1190 494 10;
#X msg 248 250 rate-scale \$1;
#X msg 366 250 frequency-scale \$1;
#X msg 505 249 gain-scale \$1;
#X obj 248 318 res-transform;
#X obj 703 169 f, f 2;
#X obj 703 142 bng 15 250 50 0 empty empty empty 17 7 0 10 -262144
-1 -1;
#X obj 765 168 +;
#X obj 796 169 mod;
#X msg 780 141 1;
#X obj 732 207 print count;
#X text 779 124 step;
#X text 811 123 limit;
#X text 644 141 increment;
#X obj 703 274 res-load, f 10;
#X obj 51 341 resonators~;
#X obj 50 109 analogInput0~;
#X text 767 275 loads default resonance models;
#X text 50 91 piezo input;
#X text 729 72 SIMPLE COUNTER;
#X obj 579 395 audioOnOff;
#X obj 579 371 tgl 15 0 empty empty empty 17 7 0 10 -262144 -1 -1 1
1;
#X obj 579 346 loadbang;
#X obj 51 398 output~;
#X obj 58 140 scope0~;
#X obj 703 323 print model;
#X text 48 36 TRANSFORMING RESONANCE MODELS WITH ANALOGUE SENSORS;
#X obj 248 151 sig-to-ctrl~;
#X obj 366 151 sig-to-ctrl~;
#X obj 505 150 sig-to-ctrl~;
#X text 342 78 RES-TRANSFORM INPUTS;
#X obj 263 179 loadbang;
#X msg 263 202 5;
#X obj 248 224 *;
#X obj 366 224 *;
#X obj 505 223 *;
#X msg 381 203 5;
#X msg 520 202 5;
#X text 551 202 scaling;
#X text 411 203 scaling;
#X text 292 202 scaling;
#X text 248 112 DECAY RATE;
#X text 505 111 GAIN;
#X text 366 112 FREQ. SHIFT;
#X text 330 319 receive model from res-load;
#X text 330 336 and parameters from messages;
#X text 767 292 and send them to res-transform;
#X msg 811 141 14;
#X text 90 267 scale up before;
#X text 90 284 sending to resonators~;
#X obj 703 95 digitalInput1;
#X obj 248 129 analogInput2~;
#X obj 366 130 analogInput3~;
#X obj 505 128 analogInput4~;
#X obj 50 214 -~ 1;
#X text 95 191 re-centre;
#X text 95 214 from 0-1 to -1 to 1;
#X obj 103 398 scope2~;
#X obj 60 242 scope1~;
#X obj 50 192 *~ 2.5;
#X obj 50 267 *~ 200;
#X obj 703 118 debounce;
#X connect 0 0 3 0;
#X connect 1 0 3 0;
#X connect 2 0 3 0;
#X connect 3 0 14 0;
#X connect 4 0 6 0;
#X connect 4 0 9 0;
#X connect 4 0 13 0;
#X connect 5 0 4 0;
#X connect 6 0 4 1;
#X connect 6 0 7 0;
#X connect 7 0 4 1;
#X connect 8 0 6 1;
#X connect 13 0 24 0;
#X connect 13 0 3 0;
#X connect 14 0 22 0;
#X connect 14 0 56 0;
#X connect 15 0 23 0;
#X connect 15 0 58 0;
#X connect 20 0 19 0;
#X connect 21 0 20 0;
#X connect 26 0 32 0;
#X connect 27 0 33 0;
#X connect 28 0 34 0;
#X connect 30 0 31 0;
#X connect 30 0 35 0;
#X connect 30 0 36 0;
#X connect 31 0 32 1;
#X connect 32 0 0 0;
#X connect 33 0 1 0;
#X connect 34 0 2 0;
#X connect 35 0 33 1;
#X connect 36 0 34 1;
#X connect 46 0 7 1;
#X connect 49 0 60 0;
#X connect 50 0 26 0;
#X connect 51 0 27 0;
#X connect 52 0 28 0;
#X connect 53 0 57 0;
#X connect 53 0 59 0;
#X connect 58 0 53 0;
#X connect 59 0 14 0;
#X connect 60 0 5 0;
