#N canvas 970 506 670 430 10;
#X floatatom 263 138 5 0 0 0 - - -, f 5;
#X obj 263 116 hradio 15 0 0 4 empty empty empty 0 -8 0 10 -262144
-1 -1 0;
#X text 263 99 model select;
#X obj 263 218 res-load, f 10;
#X obj 60 256 resonators~;
#X msg 60 137 0.5;
#X text 59 100 impulse;
#X obj 60 117 bng 15 250 50 0 empty empty empty 17 7 0 10 -262144 -1
-1;
#X text 56 33 LOADING A RESONANCE MODEL IN PD DESKTOP;
#X text 328 235 and send them to resonators~;
#X text 90 137 send an impulse;
#X text 90 159 to resonators~;
#X text 328 218 loads default resonance models;
#X obj 438 341 audioOnOff;
#X obj 438 317 tgl 15 0 empty empty empty 17 7 0 10 -262144 -1 -1 0
1;
#X obj 438 292 loadbang;
#X obj 60 313 output~;
#X text 324 116 radio buttons will output integers;
#X obj 114 313 scope0~;
#X obj 279 164 print select;
#X obj 263 314 print model;
#X connect 0 0 3 0;
#X connect 0 0 19 0;
#X connect 1 0 0 0;
#X connect 3 0 4 0;
#X connect 3 0 20 0;
#X connect 4 0 16 0;
#X connect 4 0 18 0;
#X connect 5 0 4 0;
#X connect 7 0 5 0;
#X connect 14 0 13 0;
#X connect 15 0 14 0;
