#N canvas 553 272 857 528 10;
#X obj 103 245 dac~ 1 2;
#X obj 160 244 print;
#X obj 296 129 f, f 2;
#X obj 296 102 bng 15 250 50 0 empty empty empty 17 7 0 10 -262144
-1 -1;
#X obj 324 155 +;
#X obj 355 156 mod;
#X msg 339 128 1;
#X msg 370 127 4;
#X obj 324 193 print count;
#X text 340 105 step;
#X text 373 105 limit;
#X text 295 84 increment;
#X obj 219 166 res-load, f 10;
#X obj 103 188 resonators~;
#X text 103 101 piezo input;
#X obj 103 123 adc~ 1;
#X text 110 152 TODO: scale?;
#X connect 2 0 4 0;
#X connect 2 0 8 0;
#X connect 2 0 12 0;
#X connect 3 0 2 0;
#X connect 4 0 2 1;
#X connect 4 0 5 0;
#X connect 5 0 2 1;
#X connect 6 0 4 1;
#X connect 7 0 5 1;
#X connect 12 0 1 0;
#X connect 12 0 13 0;
#X connect 13 0 0 0;
#X connect 13 0 0 1;
#X connect 15 0 13 0;
