#N canvas 254 319 857 528 10;
#X floatatom 283 196 5 0 0 0 - - -, f 5;
#X obj 283 174 hradio 15 0 0 4 empty empty empty 0 -8 0 10 -262144
-1 -1 0;
#X text 283 157 model select;
#X obj 471 223 f, f 2;
#X obj 471 196 bng 15 250 50 0 empty empty empty 17 7 0 10 -262144
-1 -1;
#X obj 533 222 +;
#X obj 564 223 mod;
#X msg 548 195 1;
#X msg 579 195 4;
#X obj 471 261 print count;
#X text 547 178 step;
#X text 579 177 limit;
#X text 412 195 increment;
#X obj 284 309 res-load, f 10;
#X obj 84 355 resonators~;
#X obj 83 159 analogInput0~;
#X obj 83 213 setSensorThreshold~;
#X msg 194 184 0.5;
#X obj 194 159 loadbang;
#X text 348 327 and send them to resonators~;
#X text 348 310 loads default resonance models;
#X text 83 141 piezo input;
#X text 497 126 SIMPLE COUNTER;
#X obj 471 157 digitalInput0;
#X obj 546 413 audioOnOff;
#X obj 546 389 tgl 15 0 empty empty empty 17 7 0 10 -262144 -1 -1 0
1;
#X obj 546 364 loadbang;
#X obj 84 412 output~;
#X obj 95 186 scope0~;
#X obj 136 412 scope1~;
#X obj 284 407 print model;
#X obj 297 245 print select;
#X text 82 77 SWITCHING RESONANCE MODELS WITH A BUTTON;
#X connect 0 0 13 0;
#X connect 0 0 31 0;
#X connect 1 0 0 0;
#X connect 3 0 5 0;
#X connect 3 0 9 0;
#X connect 4 0 3 0;
#X connect 5 0 3 1;
#X connect 5 0 6 0;
#X connect 6 0 3 1;
#X connect 7 0 5 1;
#X connect 8 0 6 1;
#X connect 13 0 14 0;
#X connect 13 0 30 0;
#X connect 14 0 27 0;
#X connect 14 0 29 0;
#X connect 15 0 16 0;
#X connect 15 0 28 0;
#X connect 16 0 14 0;
#X connect 17 0 16 1;
#X connect 18 0 17 0;
#X connect 23 0 4 0;
#X connect 25 0 24 0;
#X connect 26 0 25 0;
