#N canvas 725 22 809 488 10;
#X floatatom 244 163 5 0 0 0 - - -, f 5;
#X obj 244 141 hradio 15 0 0 14 empty empty empty 0 -8 0 10 -262144
-1 -1 0;
#X text 244 124 model select;
#X obj 579 195 f, f 2;
#X obj 579 168 bng 15 250 50 0 empty empty empty 17 7 0 10 -262144
-1 -1;
#X obj 641 194 +;
#X obj 672 195 mod;
#X msg 656 167 1;
#X obj 579 233 print count;
#X text 655 150 step;
#X text 687 149 limit;
#X text 520 167 increment;
#X obj 245 276 res-load, f 10;
#X obj 44 322 resonators~;
#X obj 44 126 analogInput0~;
#X text 309 294 and send them to resonators~;
#X text 309 277 loads default resonance models;
#X text 44 108 piezo input;
#X text 605 98 SIMPLE COUNTER;
#X obj 507 380 audioOnOff;
#X obj 507 356 tgl 15 0 empty empty empty 17 7 0 10 -262144 -1 -1 1
1;
#X obj 507 331 loadbang;
#X obj 44 379 output~;
#X obj 56 153 scope0~;
#X obj 96 379 scope1~;
#X obj 245 374 print model;
#X obj 258 212 print select;
#X text 43 44 SWITCHING RESONANCE MODELS WITH A BUTTON;
#X msg 687 167 14;
#X text 276 164 radio buttons will output integers;
#X text 85 261 scale up before;
#X text 85 278 sending to resonators~;
#X obj 45 208 -~ 1;
#X text 90 185 re-centre;
#X text 90 208 from 0-1 to -1 to 1;
#X obj 55 236 scope1~;
#X obj 45 186 *~ 2.5;
#X obj 45 261 *~ 200;
#X obj 579 118 digitalInput1;
#X obj 725 149 loadbang;
#X obj 579 141 debounce;
#X connect 0 0 12 0;
#X connect 0 0 26 0;
#X connect 1 0 0 0;
#X connect 3 0 5 0;
#X connect 3 0 8 0;
#X connect 3 0 12 0;
#X connect 4 0 3 0;
#X connect 5 0 3 1;
#X connect 5 0 6 0;
#X connect 6 0 3 1;
#X connect 7 0 5 1;
#X connect 12 0 13 0;
#X connect 12 0 25 0;
#X connect 13 0 22 0;
#X connect 13 0 24 0;
#X connect 14 0 23 0;
#X connect 14 0 36 0;
#X connect 20 0 19 0;
#X connect 21 0 20 0;
#X connect 28 0 6 1;
#X connect 32 0 35 0;
#X connect 32 0 37 0;
#X connect 36 0 32 0;
#X connect 37 0 13 0;
#X connect 38 0 40 0;
#X connect 39 0 7 0;
#X connect 39 0 28 0;
#X connect 40 0 4 0;
